<svg
   width="2021"
   height="2021"
   viewBox="0 0 534.72616 534.72628"
   version="1.1"
   id="svg5"
   xml:space="preserve"
   xmlns:xlink="http://www.w3.org/1999/xlink"
   xmlns="http://www.w3.org/2000/svg"
   xmlns:svg="http://www.w3.org/2000/svg"><defs
     id="defs2"><rect
       x="199.14656"
       y="445.2348"
       width="413.94034"
       height="42.200104"
       id="rect2501" /></defs><g
     id="layer1"><image
       width="235.6315"
       height="235.6315"
       preserveAspectRatio="none"
       xlink:href="../../Downloads/LeipzigVoid.png"
       id="image1057"
       x="-13.848011"
       y="23.764891"
       style="display:none" /></g><g
     id="layer2"
     transform="translate(-134.59548,-82.845129)"><ellipse
       style="fill:#ffffff;fill-opacity:1;stroke:#000000;stroke-width:16.7094;stroke-dasharray:none;stroke-opacity:1"
       id="ellipse2071"
       cx="401.46588"
       cy="349.96863"
       rx="248.18132"
       ry="255.53424" /><path
       style="fill:#000000;fill-opacity:1;stroke:none;stroke-width:1.10766"
       d="m 362.43573,61.127745 -0.74275,592.716805 6.87045,1.29981 0.46423,-597.451849 z"
       id="path1637" /><path
       style="fill:#000000;fill-opacity:1;stroke:none;stroke-width:1.10766"
       d="m 376.61629,43.795961 0.18566,641.924159 4.8279,2.41393 1.57837,-647.773323 z"
       id="path1909" /><path
       style="fill:#000000;fill-opacity:1;stroke:none;stroke-width:1.10766"
       d="m 390.54292,27.084024 0.37133,689.159696 3.50416,17.97874 2.11151,-22.12987 0.6049,-686.401231 z"
       id="path2007" /><path
       style="fill:#000000;fill-opacity:1;stroke:none;stroke-width:1.10766"
       d="m 405.11737,25.114504 0.89652,711.218326 2.58508,16.07483 1.65192,-16.08998 0.73623,-709.575909 -3.29598,-14.272026 z"
       id="path2009" /><path
       style="fill:#000000;fill-opacity:1;stroke:none;stroke-width:1.10766"
       d="m 419.56054,43.234097 -0.0929,652.486263 0.8117,13.24368 4.98967,0.7098 -0.0377,-666.125488 z"
       id="path2011" /><path
       style="fill:#000000;fill-opacity:1;stroke:none;stroke-width:1.10766"
       d="m 433.2159,61.353691 -0.27882,600.122209 0.8117,9.34418 5.91811,1.82395 -0.734,-612.879389 z"
       id="path2013" /><ellipse
       style="fill:#ffffff;fill-opacity:1;stroke:#000000;stroke-width:9.85485;stroke-dasharray:none;stroke-opacity:1"
       id="path2067"
       cx="402.25378"
       cy="353.64508"
       rx="150.50656"
       ry="146.56752" /><ellipse
       style="display:inline;fill:#000000;fill-opacity:1;stroke:#ffffff;stroke-width:9.28114;stroke-dasharray:none;stroke-opacity:1"
       id="ellipse2069"
       cx="401.99121"
       cy="352.33209"
       rx="142.12752"
       ry="137.66328" /><rect
       style="display:inline;fill:#000000;fill-opacity:1;stroke:none;stroke-width:9.85485;stroke-dasharray:none;stroke-opacity:1"
       id="rect2125"
       width="635.57898"
       height="3.8823676"
       x="76.117691"
       y="325.26654"
       ry="0" /><rect
       style="fill:#000000;fill-opacity:1;stroke:none;stroke-width:10.2721;stroke-dasharray:none;stroke-opacity:1"
       id="rect2179"
       width="690.54266"
       height="3.8823676"
       x="54.020802"
       y="337.70761"
       ry="0" /><rect
       style="fill:#000000;fill-opacity:1;stroke:none;stroke-width:10.8024;stroke-dasharray:none;stroke-opacity:1"
       id="rect2181"
       width="763.67755"
       height="3.8823676"
       x="18.394939"
       y="347.92044"
       ry="0" /><rect
       style="fill:#000000;fill-opacity:1;stroke:none;stroke-width:10.2721;stroke-dasharray:none;stroke-opacity:1"
       id="rect2183"
       width="690.54266"
       height="3.8823676"
       x="54.020802"
       y="359.86075"
       ry="0" /><rect
       style="fill:#000000;fill-opacity:1;stroke:none;stroke-width:9.98028;stroke-dasharray:none;stroke-opacity:1"
       id="rect2185"
       width="651.86035"
       height="3.8823676"
       x="76.117691"
       y="370.50125"
       ry="0" /><path
       style="display:inline;fill:#000000;fill-opacity:1;stroke:none;stroke-width:0.64471;stroke-linecap:butt;stroke-miterlimit:2.3;stroke-dasharray:none;stroke-opacity:1;paint-order:fill markers stroke"
       d="m 111.81511,302.17495 579.82698,0.26248 c 0,0 -0.65651,7.68113 -0.59087,12.80189 0.0657,5.1208 -0.45955,11.81714 -0.45955,11.81714 l -2.3634,1.64125 c 0,0 0.19676,4.6612 -0.26249,6.36814 -0.45958,1.70693 -1.24738,4.26731 -1.11605,5.38336 0.13145,1.11607 0.85344,6.82765 0.91908,8.60022 0.0657,1.77258 0.52523,9.12544 0.39395,10.17586 -0.13146,1.05042 -0.0657,2.23212 -0.0657,2.23212 l 1.05041,1.44432 c 0,0 0.19677,1.24739 -0.19676,2.23216 -0.39395,0.98473 -1.37867,3.67643 -0.72216,5.31768 0.65652,1.64129 2.56038,3.54515 2.56038,3.54515 0,0 0.13145,2.62602 0,4.98947 -0.13146,2.3634 0.13145,17.98827 0.13145,17.98827 l -579.89261,0.39394 c 0,0 -1.18172,-7.74677 -0.52521,-13.39275 0.65651,-5.64594 2.75733,-9.19109 2.88863,-15.49354 0.13129,-6.3025 -0.19697,-8.6659 0.45955,-11.42326 0.65651,-2.7573 0.65651,-6.76199 0.98476,-9.78195 0.32825,-3.01992 -0.13129,-8.20632 -0.13129,-8.20632 0,0 0.91911,-1.05042 0.85346,-3.34817 -0.0657,-2.2978 -1.24735,-7.22159 -1.24735,-7.22159 0,0 -1.31302,-4.13602 -1.44432,-8.53461 -0.13129,-4.39859 -0.19697,-15.49354 -1.05042,-17.7913 z"
       id="path2445" /><text
       xml:space="preserve"
       style="font-style:normal;font-variant:normal;font-weight:bold;font-stretch:normal;font-size:70.89px;font-family:Arial;-inkscape-font-specification:'Arial, Bold';font-variant-ligatures:normal;font-variant-caps:normal;font-variant-numeric:normal;font-variant-east-asian:normal;fill:#ffffff;fill-opacity:1;stroke:none;stroke-width:0.64471;stroke-linecap:butt;stroke-miterlimit:2.3;stroke-dasharray:none;stroke-opacity:1;paint-order:fill markers stroke"
       x="203.98871"
       y="375.17844"
       id="text2609"><tspan
         id="tspan2607"
         style="font-style:normal;font-variant:normal;font-weight:bold;font-stretch:normal;font-size:70.89px;font-family:Arial;-inkscape-font-specification:'Arial, Bold';font-variant-ligatures:normal;font-variant-caps:normal;font-variant-numeric:normal;font-variant-east-asian:normal;stroke-width:0.64471"
         x="203.98871"
         y="375.17844">L E I P Z I G</tspan></text><text
       xml:space="preserve"
       style="font-style:normal;font-variant:normal;font-weight:bold;font-stretch:normal;font-size:29.5376px;font-family:Arial;-inkscape-font-specification:'Arial, Bold';font-variant-ligatures:normal;font-variant-caps:normal;font-variant-numeric:normal;font-variant-east-asian:normal;fill:#ffffff;fill-opacity:1;stroke:none;stroke-width:0.64471;stroke-linecap:butt;stroke-miterlimit:2.3;stroke-dasharray:none;stroke-opacity:1;paint-order:fill markers stroke"
       x="345.38351"
       y="430.0759"
       id="text2613"><tspan
         id="tspan2611"
         style="font-style:normal;font-variant:normal;font-weight:bold;font-stretch:normal;font-size:29.5376px;font-family:Arial;-inkscape-font-specification:'Arial, Bold';font-variant-ligatures:normal;font-variant-caps:normal;font-variant-numeric:normal;font-variant-east-asian:normal;stroke-width:0.64471"
         x="345.38351"
         y="430.0759">V  O  I  D</tspan></text></g></svg>
